<svg xmlns="http://www.w3.org/2000/svg" width="128" height="128" viewBox="0 0 128 128" version="1.1"><path d="M 22.994 4.913 C 16.052 7.084, 9.953 12.250, 6.362 19 C 4.632 22.252, 4.500 25.445, 4.500 64 C 4.500 104.658, 4.544 105.581, 6.665 109.500 C 7.856 111.700, 10.556 115.145, 12.665 117.156 C 19.594 123.761, 21.397 124, 64.357 124 C 108.076 124, 108.973 123.869, 116.442 116.400 C 124.026 108.817, 124.130 108.051, 123.793 62.361 C 123.524 25.739, 123.349 22.216, 121.638 19 C 119.039 14.114, 114.215 9.211, 109.500 6.662 C 105.608 4.558, 104.420 4.495, 65.500 4.314 C 43.500 4.212, 24.372 4.481, 22.994 4.913 M 28 26.500 L 28 32 33 32 L 38 32 38 37 L 38 42 33 42 L 28 42 28 47 L 28 52 22.500 52 L 17 52 17 57.500 L 17 63 12 63 L 7 63 7 78.500 L 7 94 12 94 L 17 94 17 83.500 L 17 73 22.500 73 L 28 73 28 83.500 L 28 94 33 94 L 38 94 38 99 L 38 104 48.500 104 L 59 104 59 99 L 59 94 48.500 94 L 38 94 38 88.500 L 38 83 64 83 L 90 83 90 88.500 L 90 94 79.500 94 L 69 94 69 99 L 69 104 79.500 104 L 90 104 90 99 L 90 94 95 94 L 100 94 100 83.500 L 100 73 105.500 73 L 111 73 111 83.500 L 111 94 116 94 L 121 94 121 78.500 L 121 63 116 63 L 111 63 111 57.500 L 111 52 105.500 52 L 100 52 100 47 L 100 42 95 42 L 90 42 90 37 L 90 32 95 32 L 100 32 100 26.500 L 100 21 95 21 L 90 21 90 26.500 L 90 32 85 32 L 80 32 80 37 L 80 42 64 42 L 48 42 48 37 L 48 32 43 32 L 38 32 38 26.500 L 38 21 33 21 L 28 21 28 26.500 M 38 57.500 L 38 63 43 63 L 48 63 48 57.500 L 48 52 43 52 L 38 52 38 57.500 M 80 57.500 L 80 63 85 63 L 90 63 90 57.500 L 90 52 85 52 L 80 52 80 57.500" stroke="none" fill="#040404" fill-rule="evenodd"/><path d="M 22.046 1.092 C 12.088 3.044, 2.909 12.716, 0.948 23.321 C 0.263 27.031, -0.013 43.136, 0.187 67.818 C 0.486 104.783, 0.594 106.704, 2.623 111.089 C 5.332 116.946, 11.054 122.668, 16.911 125.377 C 21.361 127.436, 22.789 127.500, 64 127.500 L 106.500 127.500 112.230 124.686 C 115.381 123.139, 119.322 120.220, 120.988 118.199 C 123.797 114.790, 124.910 112.322, 127.873 102.929 C 129.230 98.628, 129.471 25, 128.128 25 C 127.648 25, 126.982 23.291, 126.648 21.202 C 125.269 12.576, 116.570 3.893, 106.758 1.347 C 100.755 -0.210, 29.778 -0.424, 22.046 1.092 M 22.994 4.913 C 16.052 7.084, 9.953 12.250, 6.362 19 C 4.632 22.252, 4.500 25.445, 4.500 64 C 4.500 104.658, 4.544 105.581, 6.665 109.500 C 7.856 111.700, 10.556 115.145, 12.665 117.156 C 19.594 123.761, 21.397 124, 64.357 124 C 108.076 124, 108.973 123.869, 116.442 116.400 C 124.026 108.817, 124.130 108.051, 123.793 62.361 C 123.524 25.739, 123.349 22.216, 121.638 19 C 119.039 14.114, 114.215 9.211, 109.500 6.662 C 105.608 4.558, 104.420 4.495, 65.500 4.314 C 43.500 4.212, 24.372 4.481, 22.994 4.913 M 28 26.500 L 28 32 33 32 L 38 32 38 37 L 38 42 33 42 L 28 42 28 47 L 28 52 22.500 52 L 17 52 17 57.500 L 17 63 12 63 L 7 63 7 78.500 L 7 94 12 94 L 17 94 17 83.500 L 17 73 22.500 73 L 28 73 28 83.500 L 28 94 33 94 L 38 94 38 99 L 38 104 48.500 104 L 59 104 59 99 L 59 94 48.500 94 L 38 94 38 88.500 L 38 83 64 83 L 90 83 90 88.500 L 90 94 79.500 94 L 69 94 69 99 L 69 104 79.500 104 L 90 104 90 99 L 90 94 95 94 L 100 94 100 83.500 L 100 73 105.500 73 L 111 73 111 83.500 L 111 94 116 94 L 121 94 121 78.500 L 121 63 116 63 L 111 63 111 57.500 L 111 52 105.500 52 L 100 52 100 47 L 100 42 95 42 L 90 42 90 37 L 90 32 95 32 L 100 32 100 26.500 L 100 21 95 21 L 90 21 90 26.500 L 90 32 85 32 L 80 32 80 37 L 80 42 64 42 L 48 42 48 37 L 48 32 43 32 L 38 32 38 26.500 L 38 21 33 21 L 28 21 28 26.500 M 0.454 64 C 0.454 85.175, 0.587 93.838, 0.749 83.250 C 0.911 72.663, 0.911 55.338, 0.749 44.750 C 0.587 34.163, 0.454 42.825, 0.454 64 M 38 57.500 L 38 63 43 63 L 48 63 48 57.500 L 48 52 43 52 L 38 52 38 57.500 M 80 57.500 L 80 63 85 63 L 90 63 90 57.500 L 90 52 85 52 L 80 52 80 57.500" stroke="none" fill="#fcfcfc" fill-rule="evenodd"/></svg>